<svg version="1.1" id="Layer_1" xmlns="http://www.w3.org/2000/svg" xmlns:xlink="http://www.w3.org/1999/xlink" x="0px" y="0px"
	 width="100%" viewBox="0 0 1254 1254" enable-background="new 0 0 1254 1254" xml:space="preserve">
<path fill="#FEFEFE" opacity="1.000000" stroke="none" 
	d="
M582.000000,1255.000000 
	C388.000000,1255.000000 194.500000,1255.000000 1.000000,1255.000000 
	C1.000000,837.000000 1.000000,419.000000 1.000000,1.000000 
	C419.000000,1.000000 837.000000,1.000000 1255.000000,1.000000 
	C1255.000000,419.000000 1255.000000,837.000000 1255.000000,1255.000000 
	C1030.833374,1255.000000 806.666687,1255.000000 582.000000,1255.000000 
M419.314453,779.988770 
	C419.156647,780.304688 418.998810,780.620667 418.261963,781.183838 
	C417.836945,782.118469 417.411896,783.053162 416.512573,784.470642 
	C413.652588,789.304260 410.792633,794.137939 407.377716,799.357910 
	C404.257263,804.575317 401.136810,809.792725 397.489319,815.438293 
	C387.293121,832.285034 377.096924,849.131775 366.362549,866.380981 
	C351.155731,890.964539 335.948914,915.548157 320.742065,940.131714 
	C338.993042,926.892090 356.327881,912.993652 373.609222,899.028870 
	C386.596863,888.533752 399.524445,877.964172 412.461487,867.406616 
	C418.701141,862.314575 424.901031,857.173828 431.772797,851.891663 
	C440.898804,844.513733 450.045898,837.161682 459.146271,829.752319 
	C477.007385,815.210510 494.833466,800.625610 512.691711,786.080139 
	C524.201965,776.705017 535.743713,767.368530 547.886902,757.820068 
	C553.348755,753.293091 558.845886,748.807861 564.263550,744.228577 
	C570.964783,738.564209 577.599976,732.821777 584.970581,727.197571 
	C590.965881,722.400757 596.961182,717.604004 603.580078,712.596741 
	C616.720398,701.982666 629.860718,691.368591 643.497803,680.590027 
	C643.564270,680.228882 643.630737,679.867676 643.697144,679.506592 
	C643.465332,679.532166 643.233521,679.557739 642.278381,679.418091 
	C641.792542,679.485046 641.306641,679.552063 640.507690,679.382690 
	C640.507690,679.382690 640.173462,679.588013 639.241150,679.357605 
	C621.499512,679.388184 603.757874,679.418701 585.104004,679.247192 
	C580.735352,679.328735 576.366699,679.410217 571.095398,679.273865 
	C567.063049,679.331665 563.030762,679.389465 558.100525,679.232483 
	C554.399841,679.298218 550.699219,679.363953 546.105713,679.247192 
	C543.074402,679.322632 540.043091,679.398071 536.094055,679.265808 
	C527.708801,679.343567 519.323486,679.421387 510.189667,679.278992 
	C507.268616,679.278992 504.347565,679.278992 501.426514,679.278992 
	C501.212189,678.870728 500.997833,678.462463 500.783508,678.054199 
	C506.922974,671.061157 513.062439,664.068176 519.730408,656.855713 
	C520.157898,656.243347 520.585327,655.630981 521.536011,654.796631 
	C521.956970,654.182373 522.377930,653.568115 523.385071,652.611938 
	C526.602173,648.635498 529.819275,644.658997 533.411621,640.671326 
	C533.661621,640.529785 533.765076,640.317017 534.222900,639.699036 
	C534.315369,639.520813 534.407776,639.342651 534.996826,638.884705 
	C535.780029,637.830444 536.563293,636.776123 537.929504,635.367676 
	C539.054565,633.960876 540.179626,632.554077 541.884277,630.839478 
	C547.680420,623.590210 553.476501,616.340942 559.925415,609.017212 
	C561.184998,607.339905 562.444580,605.662598 564.247253,603.561646 
	C566.201172,601.445862 568.155029,599.330139 570.658020,596.929077 
	C571.535828,595.823730 572.413574,594.718384 573.879578,593.242188 
	C575.482666,591.260254 577.085815,589.278259 579.222412,586.966003 
	C592.418823,571.424683 605.615234,555.883362 619.338806,540.015442 
	C631.152710,526.215393 642.966553,512.415405 655.134155,498.202148 
	C511.031952,498.202148 368.009125,498.202148 223.750275,498.202148 
	C250.020966,510.378296 275.085175,521.999084 300.152679,533.612854 
	C348.155457,555.852478 396.165588,578.076294 444.142914,600.370789 
	C445.978363,601.223694 447.503815,602.743835 448.658264,604.439758 
	C441.446716,617.962646 434.235168,631.485535 426.503906,645.455261 
	C424.207977,649.641052 421.829834,653.784241 419.633636,658.021667 
	C415.352448,666.281982 411.173126,674.595032 406.286896,683.109924 
	C403.866302,687.432068 401.445709,691.754150 398.479156,696.475586 
	C393.319855,705.983765 388.160522,715.491882 382.494385,725.460327 
	C377.954803,733.879272 373.415222,742.298157 368.316833,751.137024 
	C365.591797,756.149475 362.866760,761.161987 359.955139,766.517578 
	C366.322205,766.517578 372.168671,766.517578 378.853394,766.724915 
	C380.576935,766.665100 382.300507,766.605347 384.936951,766.749756 
	C393.695190,766.679932 402.453430,766.610107 411.992126,766.731079 
	C413.319214,766.658386 414.646332,766.585693 416.723419,766.715454 
	C417.490875,766.646545 418.258331,766.577637 419.634735,766.696533 
	C420.210327,766.519775 420.785919,766.343018 421.951752,766.672058 
	C422.973511,766.643677 423.995300,766.615295 425.692871,766.770447 
	C426.155457,766.821899 426.618073,766.873291 426.985291,767.631226 
	C424.720001,771.429871 422.454681,775.228577 419.834351,779.349182 
	C419.834351,779.349182 419.734558,779.818054 419.833984,779.913940 
	C419.833984,779.913940 419.803406,779.779236 419.314453,779.988770 
M514.500000,314.654053 
	C455.813873,314.654053 397.127716,314.654053 337.214661,314.654053 
	C338.764191,315.993958 339.222992,316.414673 339.706238,316.805206 
	C388.160431,355.961823 436.599579,395.137207 485.141602,434.184692 
	C486.869659,435.574768 489.616119,436.320953 491.888763,436.322784 
	C610.550964,436.419006 729.213623,436.273773 847.874695,436.643311 
	C857.274841,436.672577 867.136475,438.964142 875.953003,442.360443 
	C890.965698,448.143585 897.784607,461.884827 895.478821,477.826050 
	C894.190430,486.733948 890.938049,494.969299 885.528076,502.081573 
	C863.740601,530.724609 834.309692,545.245300 798.741577,546.320801 
	C768.437195,547.237183 738.082886,546.520325 707.750671,546.487183 
	C701.421509,546.480225 696.216492,548.594666 691.750183,553.266235 
	C674.937744,570.851379 657.919983,588.240051 641.038208,605.759277 
	C629.306519,617.933899 617.671692,630.201782 605.215332,643.242737 
	C607.744080,643.242737 609.165161,643.242249 610.586182,643.242859 
	C635.918152,643.254089 661.250732,643.193298 686.581116,643.397705 
	C688.906677,643.416382 691.727783,644.571228 693.454529,646.146118 
	C705.025818,656.699707 716.438599,667.430969 727.762451,678.251404 
	C771.374634,719.924927 814.910156,761.678772 858.597778,803.272888 
	C860.397522,804.986389 863.436340,806.273010 865.903320,806.282166 
	C917.567261,806.473022 969.231995,806.450867 1020.896606,806.470276 
	C1024.439453,806.471619 1027.982300,806.470459 1032.877808,806.470459 
	C975.679504,752.560364 919.637817,699.740356 863.103394,646.455994 
	C865.628357,645.927063 867.209595,645.580078 868.797607,645.267212 
	C870.592590,644.913635 872.412842,644.670654 874.189331,644.243164 
	C922.993530,632.500916 962.505310,606.026672 993.618042,567.180603 
	C1016.496826,538.614990 1030.863037,506.236053 1032.182739,468.981140 
	C1034.109375,414.591187 1012.686523,372.249298 966.273438,343.425262 
	C934.305237,323.572083 898.809082,314.903931 861.488037,314.794495 
	C746.159546,314.456299 630.829529,314.657837 514.500000,314.654053 
z"/>
<path fill="#111211" opacity="1.000000" stroke="none" 
	d="
M515.000000,314.651917 
	C630.829529,314.657837 746.159546,314.456299 861.488037,314.794495 
	C898.809082,314.903931 934.305237,323.572083 966.273438,343.425262 
	C1012.686523,372.249298 1034.109375,414.591187 1032.182739,468.981140 
	C1030.863037,506.236053 1016.496826,538.614990 993.618042,567.180603 
	C962.505310,606.026672 922.993530,632.500916 874.189331,644.243164 
	C872.412842,644.670654 870.592590,644.913635 868.797607,645.267212 
	C867.209595,645.580078 865.628357,645.927063 863.103394,646.455994 
	C919.637817,699.740356 975.679504,752.560364 1032.877808,806.470459 
	C1027.982300,806.470459 1024.439453,806.471619 1020.896606,806.470276 
	C969.231995,806.450867 917.567261,806.473022 865.903320,806.282166 
	C863.436340,806.273010 860.397522,804.986389 858.597778,803.272888 
	C814.910156,761.678772 771.374634,719.924927 727.762451,678.251404 
	C716.438599,667.430969 705.025818,656.699707 693.454529,646.146118 
	C691.727783,644.571228 688.906677,643.416382 686.581116,643.397705 
	C661.250732,643.193298 635.918152,643.254089 610.586182,643.242859 
	C609.165161,643.242249 607.744080,643.242737 605.215332,643.242737 
	C617.671692,630.201782 629.306519,617.933899 641.038208,605.759277 
	C657.919983,588.240051 674.937744,570.851379 691.750183,553.266235 
	C696.216492,548.594666 701.421509,546.480225 707.750671,546.487183 
	C738.082886,546.520325 768.437195,547.237183 798.741577,546.320801 
	C834.309692,545.245300 863.740601,530.724609 885.528076,502.081573 
	C890.938049,494.969299 894.190430,486.733948 895.478821,477.826050 
	C897.784607,461.884827 890.965698,448.143585 875.953003,442.360443 
	C867.136475,438.964142 857.274841,436.672577 847.874695,436.643311 
	C729.213623,436.273773 610.550964,436.419006 491.888763,436.322784 
	C489.616119,436.320953 486.869659,435.574768 485.141602,434.184692 
	C436.599579,395.137207 388.160431,355.961823 339.706238,316.805206 
	C339.222992,316.414673 338.764191,315.993958 337.214661,314.654053 
	C397.127716,314.654053 455.813873,314.654053 515.000000,314.651917 
z"/>
<path fill="#0257FC" opacity="1.000000" stroke="none" 
	d="
M449.173737,603.953064 
	C447.503815,602.743835 445.978363,601.223694 444.142914,600.370789 
	C396.165588,578.076294 348.155457,555.852478 300.152679,533.612854 
	C275.085175,521.999084 250.020966,510.378296 223.750275,498.202148 
	C368.009125,498.202148 511.031952,498.202148 655.134155,498.202148 
	C642.966553,512.415405 631.152710,526.215393 618.652283,540.060059 
	C611.090759,534.738464 622.925903,534.952148 620.606995,530.951050 
	C618.366516,529.817200 616.145142,528.345886 613.702271,527.601807 
	C612.462036,527.224060 610.681030,527.882568 609.390015,528.548584 
	C605.461426,530.575500 601.671936,532.869873 597.792175,534.994141 
	C591.472046,538.454651 585.041626,541.652283 577.810547,542.791748 
	C577.670898,542.813782 577.534973,542.980957 577.434082,543.109314 
	C575.120911,546.052979 572.018433,546.635010 568.417847,547.346436 
	C563.627563,548.292969 558.091675,549.941101 554.856873,553.233826 
	C550.037598,558.139343 543.905945,559.812744 538.306091,562.603333 
	C527.196045,568.139893 515.651001,572.800476 504.314789,577.887817 
	C500.558472,579.573547 496.984619,581.694458 493.163727,583.201660 
	C485.361938,586.279297 477.415741,588.990051 469.604004,592.043762 
	C467.489136,592.870483 465.131134,593.976379 463.782074,595.669312 
	C461.150177,598.971924 458.559357,601.394714 453.899475,601.168762 
	C452.372803,601.094727 450.751678,602.969482 449.173737,603.953064 
z"/>
<path fill="#014FEE" opacity="1.000000" stroke="none" 
	d="
M448.916016,604.196411 
	C450.751678,602.969482 452.372803,601.094727 453.899475,601.168762 
	C458.559357,601.394714 461.150177,598.971924 463.782074,595.669312 
	C465.131134,593.976379 467.489136,592.870483 469.604004,592.043762 
	C477.415741,588.990051 485.361938,586.279297 493.163727,583.201660 
	C496.984619,581.694458 500.558472,579.573547 504.314789,577.887817 
	C515.651001,572.800476 527.196045,568.139893 538.306091,562.603333 
	C543.905945,559.812744 550.037598,558.139343 554.856873,553.233826 
	C558.091675,549.941101 563.627563,548.292969 568.417847,547.346436 
	C572.018433,546.635010 575.120911,546.052979 577.434082,543.109314 
	C577.534973,542.980957 577.670898,542.813782 577.810547,542.791748 
	C585.041626,541.652283 591.472046,538.454651 597.792175,534.994141 
	C601.671936,532.869873 605.461426,530.575500 609.390015,528.548584 
	C610.681030,527.882568 612.462036,527.224060 613.702271,527.601807 
	C616.145142,528.345886 618.366516,529.817200 620.606995,530.951050 
	C622.925903,534.952148 611.090759,534.738464 618.388672,540.223389 
	C605.615234,555.883362 592.418823,571.424683 578.583618,586.975220 
	C577.295349,586.470276 576.523987,586.054810 576.015320,585.426636 
	C571.495972,579.846130 568.788208,579.481506 562.932373,583.489075 
	C561.780396,584.277466 560.224426,584.453369 558.898071,585.014221 
	C556.817017,585.894287 554.587219,586.589417 552.748474,587.843811 
	C547.733582,591.264954 543.154907,595.401062 537.912842,598.395020 
	C531.208069,602.224304 524.156433,605.535583 517.012329,608.484070 
	C507.755707,612.304138 498.285614,615.616211 488.855927,619.003784 
	C484.984589,620.394531 480.626862,620.774536 477.102722,622.722229 
	C467.720184,627.907654 459.759979,635.830322 448.420563,637.173096 
	C447.873047,637.237976 447.057953,637.842896 446.942413,638.332153 
	C445.405334,644.840393 438.688385,645.932495 434.770660,649.946777 
	C432.922028,651.840942 430.653778,652.065674 429.881714,648.304382 
	C429.626770,647.062500 428.015015,646.099121 427.023621,645.008423 
	C434.235168,631.485535 441.446716,617.962646 448.916016,604.196411 
z"/>
<path fill="#022B92" opacity="1.000000" stroke="none" 
	d="
M366.900696,865.978455 
	C377.096924,849.131775 387.293121,832.285034 398.082458,815.372070 
	C399.404175,815.945129 400.499695,816.444641 400.805023,817.245361 
	C404.189209,826.121155 411.893707,827.537781 418.709991,820.839294 
	C420.218414,819.356934 423.214783,819.438110 425.479614,818.663757 
	C428.426819,817.656006 432.463562,817.348450 434.007050,815.250366 
	C437.023865,811.149536 440.771942,809.418823 445.276855,807.848633 
	C451.479736,805.686768 457.457336,802.831177 463.409149,800.014343 
	C466.919952,798.352722 470.096649,795.986023 473.605072,794.318176 
	C476.584534,792.901794 480.036652,792.267822 483.091858,791.409912 
	C491.848419,788.950806 498.108826,780.501831 508.070953,781.349426 
	C508.875153,781.417786 509.851135,780.504028 510.610504,779.880310 
	C513.634583,777.395752 516.415771,774.565796 519.640930,772.388123 
	C523.956604,769.474182 528.502930,766.857483 533.131775,764.464233 
	C537.727783,762.087769 542.548889,760.146667 547.271362,758.014648 
	C535.743713,767.368530 524.201965,776.705017 512.691711,786.080139 
	C494.833466,800.625610 477.007385,815.210510 459.146271,829.752319 
	C450.045898,837.161682 440.898804,844.513733 431.052185,852.000732 
	C426.924530,853.546692 422.749664,854.196594 420.285889,856.600281 
	C416.344849,860.445068 412.079620,861.310242 406.981964,862.571411 
	C400.365967,864.208130 393.239532,865.294250 387.198853,867.985657 
	C379.164001,871.565674 373.290741,872.241577 366.900696,865.978455 
z"/>
<path fill="#0149E1" opacity="1.000000" stroke="none" 
	d="
M426.763794,645.231812 
	C428.015015,646.099121 429.626770,647.062500 429.881714,648.304382 
	C430.653778,652.065674 432.922028,651.840942 434.770660,649.946777 
	C438.688385,645.932495 445.405334,644.840393 446.942413,638.332153 
	C447.057953,637.842896 447.873047,637.237976 448.420563,637.173096 
	C459.759979,635.830322 467.720184,627.907654 477.102722,622.722229 
	C480.626862,620.774536 484.984589,620.394531 488.855927,619.003784 
	C498.285614,615.616211 507.755707,612.304138 517.012329,608.484070 
	C524.156433,605.535583 531.208069,602.224304 537.912842,598.395020 
	C543.154907,595.401062 547.733582,591.264954 552.748474,587.843811 
	C554.587219,586.589417 556.817017,585.894287 558.898071,585.014221 
	C560.224426,584.453369 561.780396,584.277466 562.932373,583.489075 
	C568.788208,579.481506 571.495972,579.846130 576.015320,585.426636 
	C576.523987,586.054810 577.295349,586.470276 578.316895,587.140320 
	C577.085815,589.278259 575.482666,591.260254 573.434692,593.061462 
	C570.766479,590.832275 568.543152,588.783752 566.319885,586.735291 
	C565.712341,587.213440 565.104797,587.691589 564.497253,588.169739 
	C566.367859,591.184631 568.238403,594.199463 570.108948,597.214355 
	C568.155029,599.330139 566.201172,601.445862 563.613281,603.715454 
	C560.531860,603.063416 557.715759,601.666809 556.616394,605.299561 
	C556.340271,606.212036 558.326233,607.809204 559.272644,609.091675 
	C553.476501,616.340942 547.680420,623.590210 541.264954,630.840393 
	C538.816162,629.723694 537.064636,627.988525 535.125000,627.743835 
	C534.125732,627.617676 532.791748,630.144165 531.692078,631.378784 
	C534.074402,633.208618 535.710510,634.465271 537.346558,635.721863 
	C536.563293,636.776123 535.780029,637.830444 534.351501,638.950073 
	C533.081116,638.518982 532.225647,638.150513 531.867493,637.505798 
	C529.063293,632.458496 525.098145,630.379639 520.081055,632.222839 
	C511.281982,635.455505 502.616241,639.053833 493.919037,642.559509 
	C490.414856,643.971985 486.582367,644.999146 483.588440,647.157593 
	C477.662811,651.429626 472.479858,656.835571 464.556519,657.332397 
	C463.759338,657.382385 462.930664,657.749634 462.215271,658.147217 
	C458.508789,660.206909 454.905365,662.463684 451.130859,664.386414 
	C446.367462,666.812927 441.612701,669.368469 436.604584,671.177124 
	C428.424011,674.131531 420.154846,676.635681 413.992737,683.384521 
	C411.815277,685.769348 409.080902,686.123718 406.951599,682.886292 
	C411.173126,674.595032 415.352448,666.281982 419.633636,658.021667 
	C421.829834,653.784241 424.207977,649.641052 426.763794,645.231812 
z"/>
<path fill="#023BBD" opacity="1.000000" stroke="none" 
	d="
M558.998413,679.447266 
	C563.030762,679.389465 567.063049,679.331665 571.549377,679.756226 
	C572.089844,684.740723 569.905579,686.826477 565.383728,687.087402 
	C563.159424,687.215698 560.394592,687.614685 558.896423,688.997925 
	C552.877502,694.555542 547.817871,701.404114 538.553650,701.797302 
	C537.793579,701.829590 537.051819,702.471558 536.315552,702.856995 
	C529.317017,706.520386 522.461609,710.493408 515.297302,713.796570 
	C498.216919,721.671692 481.069641,729.413757 463.794647,736.850037 
	C453.368347,741.338135 442.343658,744.448425 433.352539,751.935425 
	C431.902405,753.142944 428.665131,753.476440 426.873260,752.729126 
	C423.440643,751.297485 421.377289,752.612976 420.597534,755.312805 
	C419.562317,758.897156 419.503906,762.763550 419.025787,766.508789 
	C418.258331,766.577637 417.490875,766.646545 416.358948,766.179993 
	C414.804047,763.783691 413.613617,761.922852 412.423218,760.062012 
	C410.279968,761.704773 408.136780,763.347473 405.525391,764.991943 
	C398.038940,764.996521 391.020691,764.999512 383.610870,765.001282 
	C381.484558,765.505859 379.749847,766.011719 378.015106,766.517578 
	C372.168671,766.517578 366.322205,766.517578 359.955139,766.517578 
	C362.866760,761.161987 365.591797,756.149475 368.656372,751.304260 
	C372.343323,756.933105 374.765625,757.442749 379.669769,753.908203 
	C385.567596,749.657532 391.479340,745.420715 397.512482,741.367676 
	C398.791229,740.508667 400.929352,739.692505 402.146912,740.176514 
	C411.017853,743.702393 417.626160,737.149475 424.342865,734.233154 
	C434.126068,729.985474 443.227478,724.337952 454.101562,722.996399 
	C455.552429,722.817383 457.029877,722.400269 458.364319,721.801941 
	C469.778656,716.683838 481.093201,711.337463 492.573975,706.374878 
	C506.132965,700.514038 520.221375,695.848877 532.548340,687.328796 
	C535.565186,685.243469 537.765991,683.381409 537.011780,679.473511 
	C540.043091,679.398071 543.074402,679.322632 546.677124,679.697266 
	C551.165222,679.913940 555.081787,679.680603 558.998413,679.447266 
z"/>
<path fill="#0134AB" opacity="1.000000" stroke="none" 
	d="
M586.016235,679.449219 
	C603.757874,679.418701 621.499512,679.388184 639.761963,679.562744 
	C640.282715,679.767883 640.584961,679.811462 640.584961,679.811462 
	C640.584961,679.811462 640.820801,679.619019 640.820801,679.619019 
	C641.306641,679.552063 641.792542,679.485046 642.614624,679.695007 
	C642.947815,680.234070 642.964539,680.494934 643.001038,680.754517 
	C629.860718,691.368591 616.720398,701.982666 603.043945,712.457703 
	C601.214600,711.572937 599.851685,710.925476 598.639954,710.065063 
	C592.289246,705.555969 580.313660,708.674316 576.869995,715.465393 
	C576.072510,717.038147 573.937378,718.263855 572.149414,718.944214 
	C565.354797,721.529785 556.732971,722.087402 552.055481,726.705872 
	C547.092224,731.606689 541.850891,732.702148 536.157532,734.533875 
	C532.708984,735.643372 529.624695,737.993958 526.145752,738.876404 
	C519.442688,740.576538 513.415527,743.073730 508.301758,747.977173 
	C505.390625,750.768738 501.740417,752.877136 498.191620,754.884155 
	C495.981049,756.134277 493.259399,756.442383 490.906342,757.486938 
	C485.953644,759.685547 481.111145,762.130737 476.188812,764.399658 
	C471.318848,766.644470 466.349945,768.681396 461.533264,771.032532 
	C458.561981,772.482849 455.879639,774.529541 452.896942,775.950195 
	C451.538055,776.597534 449.741150,776.645142 448.186829,776.498535 
	C444.445435,776.145630 440.733459,775.491089 437.003082,775.008484 
	C433.580109,774.565674 432.409454,776.366760 431.886810,779.547241 
	C431.581909,781.402527 430.386139,784.106995 429.010895,784.526367 
	C427.460907,784.999084 425.232483,783.393616 423.352264,782.570618 
	C422.501923,782.198425 421.780090,781.532654 420.750183,780.999329 
	C420.500366,780.998657 420.000763,780.996948 419.971649,780.689209 
	C419.896149,780.180786 419.849762,779.979980 419.803406,779.779236 
	C419.803406,779.779236 419.833984,779.913940 419.974304,779.868652 
	C420.226379,779.770264 420.439972,779.688354 420.434357,779.668335 
	C420.372375,779.449097 420.276245,779.239441 420.189392,779.027222 
	C422.454681,775.228577 424.720001,771.429871 427.027039,767.279785 
	C427.068787,766.928406 427.083374,766.916748 427.313599,766.945312 
	C427.543854,766.973816 428.007782,766.980347 428.423340,766.987122 
	C433.944733,768.528137 438.657349,768.582092 442.098175,763.579834 
	C442.351440,763.211609 442.923401,763.022827 443.383179,762.842346 
	C450.914520,759.886658 458.483124,757.023376 465.978394,753.979370 
	C473.261536,751.021423 480.604919,748.159790 487.678467,744.750793 
	C496.460052,740.518616 504.914398,735.611633 513.653748,731.286377 
	C521.603943,727.351624 529.866699,724.042419 537.774475,720.029480 
	C548.328857,714.673523 559.029114,709.814941 567.868774,701.236816 
	C572.499084,696.743469 578.936707,692.785645 586.481201,692.879028 
	C587.600830,692.892944 589.244995,691.715088 589.757996,690.657593 
	C590.713318,688.688049 591.015076,686.401428 591.559570,684.356873 
	C590.057129,682.107971 584.981201,684.237549 586.016235,679.449219 
z"/>
<path fill="#013EC6" opacity="1.000000" stroke="none" 
	d="
M536.552917,679.369629 
	C537.765991,683.381409 535.565186,685.243469 532.548340,687.328796 
	C520.221375,695.848877 506.132965,700.514038 492.573975,706.374878 
	C481.093201,711.337463 469.778656,716.683838 458.364319,721.801941 
	C457.029877,722.400269 455.552429,722.817383 454.101562,722.996399 
	C443.227478,724.337952 434.126068,729.985474 424.342865,734.233154 
	C417.626160,737.149475 411.017853,743.702393 402.146912,740.176514 
	C400.929352,739.692505 398.791229,740.508667 397.512482,741.367676 
	C391.479340,745.420715 385.567596,749.657532 379.669769,753.908203 
	C374.765625,757.442749 372.343323,756.933105 368.935760,751.094299 
	C373.415222,742.298157 377.954803,733.879272 383.087677,725.377991 
	C384.470673,725.515198 385.387878,726.112793 386.030426,725.896118 
	C392.849152,723.596252 399.622162,721.161133 406.411804,718.774719 
	C413.818176,716.171631 421.238708,713.608398 428.635071,710.977234 
	C437.310822,707.891052 446.140656,705.149414 454.568451,701.487000 
	C459.797791,699.214478 464.353363,695.423157 469.310760,692.481140 
	C472.113495,690.817810 475.040436,688.435974 478.045105,688.217590 
	C486.483002,687.604553 494.420502,683.923218 503.139801,684.782776 
	C506.179535,685.082397 510.973358,685.089600 510.938232,679.499146 
	C519.323486,679.421387 527.708801,679.343567 536.552917,679.369629 
z"/>
<path fill="#012F9D" opacity="1.000000" stroke="none" 
	d="
M547.579102,757.917358 
	C542.548889,760.146667 537.727783,762.087769 533.131775,764.464233 
	C528.502930,766.857483 523.956604,769.474182 519.640930,772.388123 
	C516.415771,774.565796 513.634583,777.395752 510.610504,779.880310 
	C509.851135,780.504028 508.875153,781.417786 508.070953,781.349426 
	C498.108826,780.501831 491.848419,788.950806 483.091858,791.409912 
	C480.036652,792.267822 476.584534,792.901794 473.605072,794.318176 
	C470.096649,795.986023 466.919952,798.352722 463.409149,800.014343 
	C457.457336,802.831177 451.479736,805.686768 445.276855,807.848633 
	C440.771942,809.418823 437.023865,811.149536 434.007050,815.250366 
	C432.463562,817.348450 428.426819,817.656006 425.479614,818.663757 
	C423.214783,819.438110 420.218414,819.356934 418.709991,820.839294 
	C411.893707,827.537781 404.189209,826.121155 400.805023,817.245361 
	C400.499695,816.444641 399.404175,815.945129 398.346008,815.157959 
	C401.136810,809.792725 404.257263,804.575317 407.981171,799.194031 
	C409.390564,799.352600 410.196503,799.675110 411.144196,800.321533 
	C412.921936,804.562439 416.064575,805.329224 419.888184,804.874695 
	C424.038422,804.381165 424.378418,801.131042 424.956757,798.061279 
	C426.016327,792.437134 426.658264,792.094543 431.526123,794.725769 
	C436.347778,797.332214 442.300201,795.356140 445.598694,791.198914 
	C447.689087,788.564392 450.931152,786.416382 454.096985,785.156067 
	C459.751129,782.905029 465.933746,781.953613 471.529388,779.591675 
	C476.818298,777.359192 481.545868,773.833435 486.692139,771.214172 
	C490.506653,769.272705 495.092072,768.553589 498.467743,766.098694 
	C507.413452,759.593079 517.450684,755.661499 527.672424,751.899292 
	C533.508362,749.751343 539.107178,746.967896 544.884705,744.649963 
	C549.123596,742.949219 553.377869,740.944153 557.814880,740.188538 
	C561.382629,739.580994 564.381165,739.919373 564.190857,734.905090 
	C564.137268,733.492371 565.902100,731.852356 567.108948,730.578003 
	C571.981323,725.433228 578.198608,726.572754 584.263733,727.113098 
	C577.599976,732.821777 570.964783,738.564209 564.263550,744.228577 
	C558.845886,748.807861 553.348755,753.293091 547.579102,757.917358 
z"/>
<path fill="#0037B4" opacity="1.000000" stroke="none" 
	d="
M585.560120,679.348267 
	C584.981201,684.237549 590.057129,682.107971 591.559570,684.356873 
	C591.015076,686.401428 590.713318,688.688049 589.757996,690.657593 
	C589.244995,691.715088 587.600830,692.892944 586.481201,692.879028 
	C578.936707,692.785645 572.499084,696.743469 567.868774,701.236816 
	C559.029114,709.814941 548.328857,714.673523 537.774475,720.029480 
	C529.866699,724.042419 521.603943,727.351624 513.653748,731.286377 
	C504.914398,735.611633 496.460052,740.518616 487.678467,744.750793 
	C480.604919,748.159790 473.261536,751.021423 465.978394,753.979370 
	C458.483124,757.023376 450.914520,759.886658 443.383179,762.842346 
	C442.923401,763.022827 442.351440,763.211609 442.098175,763.579834 
	C438.657349,768.582092 433.944733,768.528137 428.316833,766.775146 
	C427.603638,766.291138 427.354492,766.102661 426.888306,765.766602 
	C426.128235,765.685486 425.527191,765.828613 424.481506,765.982361 
	C423.145050,766.050720 422.253296,766.108459 421.361511,766.166199 
	C420.785919,766.343018 420.210327,766.519775 419.330261,766.602661 
	C419.503906,762.763550 419.562317,758.897156 420.597534,755.312805 
	C421.377289,752.612976 423.440643,751.297485 426.873260,752.729126 
	C428.665131,753.476440 431.902405,753.142944 433.352539,751.935425 
	C442.343658,744.448425 453.368347,741.338135 463.794647,736.850037 
	C481.069641,729.413757 498.216919,721.671692 515.297302,713.796570 
	C522.461609,710.493408 529.317017,706.520386 536.315552,702.856995 
	C537.051819,702.471558 537.793579,701.829590 538.553650,701.797302 
	C547.817871,701.404114 552.877502,694.555542 558.896423,688.997925 
	C560.394592,687.614685 563.159424,687.215698 565.383728,687.087402 
	C569.905579,686.826477 572.089844,684.740723 572.000732,679.865173 
	C576.366699,679.410217 580.735352,679.328735 585.560120,679.348267 
z"/>
<path fill="#0145D8" opacity="1.000000" stroke="none" 
	d="
M406.619263,682.998108 
	C409.080902,686.123718 411.815277,685.769348 413.992737,683.384521 
	C420.154846,676.635681 428.424011,674.131531 436.604584,671.177124 
	C441.612701,669.368469 446.367462,666.812927 451.130859,664.386414 
	C454.905365,662.463684 458.508789,660.206909 462.215271,658.147217 
	C462.930664,657.749634 463.759338,657.382385 464.556519,657.332397 
	C472.479858,656.835571 477.662811,651.429626 483.588440,647.157593 
	C486.582367,644.999146 490.414856,643.971985 493.919037,642.559509 
	C502.616241,639.053833 511.281982,635.455505 520.081055,632.222839 
	C525.098145,630.379639 529.063293,632.458496 531.867493,637.505798 
	C532.225647,638.150513 533.081116,638.518982 534.103149,639.089966 
	C534.407776,639.342651 534.315369,639.520813 533.827148,639.937866 
	C533.249573,640.306213 533.117920,640.474792 533.036377,640.682495 
	C529.819275,644.658997 526.602173,648.635498 522.790405,652.847778 
	C521.801392,653.728577 521.407104,654.373596 521.012756,655.018616 
	C520.585327,655.630981 520.157898,656.243347 519.084839,656.973694 
	C516.507324,657.045837 514.482666,657.358887 512.660706,656.887939 
	C506.829407,655.380676 502.064758,656.138977 498.626465,661.727112 
	C497.458252,663.625671 495.682007,665.593384 493.711517,666.478027 
	C485.428070,670.196899 476.976929,673.544678 468.566620,676.977844 
	C457.041199,681.682617 445.497528,686.342651 433.960327,691.018494 
	C433.192749,691.329529 432.434570,691.782043 431.636414,691.880737 
	C424.615082,692.749023 419.104828,696.356567 414.094452,701.102051 
	C412.994080,702.144287 411.175903,702.569885 409.608429,702.951538 
	C404.660675,704.156189 401.185120,702.238953 399.164978,697.641846 
	C399.211121,697.641357 399.294403,697.739380 399.220123,697.324707 
	C399.105621,696.632202 399.065369,696.354248 399.025085,696.076294 
	C401.445709,691.754150 403.866302,687.432068 406.619263,682.998108 
z"/>
<path fill="#0031A5" opacity="1.000000" stroke="none" 
	d="
M584.617188,727.155334 
	C578.198608,726.572754 571.981323,725.433228 567.108948,730.578003 
	C565.902100,731.852356 564.137268,733.492371 564.190857,734.905090 
	C564.381165,739.919373 561.382629,739.580994 557.814880,740.188538 
	C553.377869,740.944153 549.123596,742.949219 544.884705,744.649963 
	C539.107178,746.967896 533.508362,749.751343 527.672424,751.899292 
	C517.450684,755.661499 507.413452,759.593079 498.467743,766.098694 
	C495.092072,768.553589 490.506653,769.272705 486.692139,771.214172 
	C481.545868,773.833435 476.818298,777.359192 471.529388,779.591675 
	C465.933746,781.953613 459.751129,782.905029 454.096985,785.156067 
	C450.931152,786.416382 447.689087,788.564392 445.598694,791.198914 
	C442.300201,795.356140 436.347778,797.332214 431.526123,794.725769 
	C426.658264,792.094543 426.016327,792.437134 424.956757,798.061279 
	C424.378418,801.131042 424.038422,804.381165 419.888184,804.874695 
	C416.064575,805.329224 412.921936,804.562439 411.534882,800.321472 
	C417.203491,799.059143 418.615906,796.352112 417.382812,789.957031 
	C423.063568,788.471680 420.305176,784.109436 421.000000,781.000000 
	C421.780090,781.532654 422.501923,782.198425 423.352264,782.570618 
	C425.232483,783.393616 427.460907,784.999084 429.010895,784.526367 
	C430.386139,784.106995 431.581909,781.402527 431.886810,779.547241 
	C432.409454,776.366760 433.580109,774.565674 437.003082,775.008484 
	C440.733459,775.491089 444.445435,776.145630 448.186829,776.498535 
	C449.741150,776.645142 451.538055,776.597534 452.896942,775.950195 
	C455.879639,774.529541 458.561981,772.482849 461.533264,771.032532 
	C466.349945,768.681396 471.318848,766.644470 476.188812,764.399658 
	C481.111145,762.130737 485.953644,759.685547 490.906342,757.486938 
	C493.259399,756.442383 495.981049,756.134277 498.191620,754.884155 
	C501.740417,752.877136 505.390625,750.768738 508.301758,747.977173 
	C513.415527,743.073730 519.442688,740.576538 526.145752,738.876404 
	C529.624695,737.993958 532.708984,735.643372 536.157532,734.533875 
	C541.850891,732.702148 547.092224,731.606689 552.055481,726.705872 
	C556.732971,722.087402 565.354797,721.529785 572.149414,718.944214 
	C573.937378,718.263855 576.072510,717.038147 576.869995,715.465393 
	C580.313660,708.674316 592.289246,705.555969 598.639954,710.065063 
	C599.851685,710.925476 601.214600,711.572937 602.732117,712.562927 
	C596.961182,717.604004 590.965881,722.400757 584.617188,727.155334 
z"/>
<path fill="#0546D1" opacity="1.000000" stroke="none" 
	d="
M399.118805,697.642395 
	C401.185120,702.238953 404.660675,704.156189 409.608429,702.951538 
	C411.175903,702.569885 412.994080,702.144287 414.094452,701.102051 
	C419.104828,696.356567 424.615082,692.749023 431.636414,691.880737 
	C432.434570,691.782043 433.192749,691.329529 433.960327,691.018494 
	C445.497528,686.342651 457.041199,681.682617 468.566620,676.977844 
	C476.976929,673.544678 485.428070,670.196899 493.711517,666.478027 
	C495.682007,665.593384 497.458252,663.625671 498.626465,661.727112 
	C502.064758,656.138977 506.829407,655.380676 512.660706,656.887939 
	C514.482666,657.358887 516.507324,657.045837 518.820557,657.083374 
	C513.062439,664.068176 506.922974,671.061157 500.783508,678.054199 
	C500.997833,678.462463 501.212189,678.870728 501.426514,679.278992 
	C504.347565,679.278992 507.268616,679.278992 510.563965,679.389038 
	C510.973358,685.089600 506.179535,685.082397 503.139801,684.782776 
	C494.420502,683.923218 486.483002,687.604553 478.045105,688.217590 
	C475.040436,688.435974 472.113495,690.817810 469.310760,692.481140 
	C464.353363,695.423157 459.797791,699.214478 454.568451,701.487000 
	C446.140656,705.149414 437.310822,707.891052 428.635071,710.977234 
	C421.238708,713.608398 413.818176,716.171631 406.411804,718.774719 
	C399.622162,721.161133 392.849152,723.596252 386.030426,725.896118 
	C385.387878,726.112793 384.470673,725.515198 383.341064,725.147827 
	C388.160522,715.491882 393.319855,705.983765 398.752136,696.275940 
	C399.065369,696.354248 399.105621,696.632202 399.192657,697.303406 
	C399.239471,697.696716 399.118805,697.642395 399.118805,697.642395 
z"/>
<path fill="#04237B" opacity="1.000000" stroke="none" 
	d="
M366.631622,866.179688 
	C373.290741,872.241577 379.164001,871.565674 387.198853,867.985657 
	C393.239532,865.294250 400.365967,864.208130 406.981964,862.571411 
	C412.079620,861.310242 416.344849,860.445068 420.285889,856.600281 
	C422.749664,854.196594 426.924530,853.546692 430.725250,852.082458 
	C424.901031,857.173828 418.701141,862.314575 412.461487,867.406616 
	C399.524445,877.964172 386.596863,888.533752 373.609222,899.028870 
	C356.327881,912.993652 338.993042,926.892090 320.742065,940.131714 
	C335.948914,915.548157 351.155731,890.964539 366.631622,866.179688 
z"/>
<path fill="#0134AB" opacity="1.000000" stroke="none" 
	d="
M416.998779,790.002441 
	C418.615906,796.352112 417.203491,799.059143 411.393127,799.997437 
	C410.196503,799.675110 409.390564,799.352600 408.258636,799.000854 
	C410.792633,794.137939 413.652588,789.304260 416.886536,784.543823 
	C417.173279,786.412170 417.086029,788.207275 416.998779,790.002441 
z"/>
<path fill="#0134AB" opacity="1.000000" stroke="none" 
	d="
M384.002441,765.002441 
	C391.020691,764.999512 398.038940,764.996521 405.948273,764.995483 
	C408.296783,765.511719 409.754211,766.026001 411.211670,766.540283 
	C402.453430,766.610107 393.695190,766.679932 384.476074,766.390503 
	C384.010925,765.688293 384.006683,765.345398 384.002441,765.002441 
z"/>
<path fill="#0145D8" opacity="1.000000" stroke="none" 
	d="
M537.638062,635.544800 
	C535.710510,634.465271 534.074402,633.208618 531.692078,631.378784 
	C532.791748,630.144165 534.125732,627.617676 535.125000,627.743835 
	C537.064636,627.988525 538.816162,629.723694 540.975159,630.994263 
	C540.179626,632.554077 539.054565,633.960876 537.638062,635.544800 
z"/>
<path fill="#0037B4" opacity="1.000000" stroke="none" 
	d="
M411.601898,766.635681 
	C409.754211,766.026001 408.296783,765.511719 406.416443,764.993774 
	C408.136780,763.347473 410.279968,761.704773 412.423218,760.062012 
	C413.613617,761.922852 414.804047,763.783691 415.983948,766.078735 
	C414.646332,766.585693 413.319214,766.658386 411.601898,766.635681 
z"/>
<path fill="#014FEE" opacity="1.000000" stroke="none" 
	d="
M570.383484,597.071716 
	C568.238403,594.199463 566.367859,591.184631 564.497253,588.169739 
	C565.104797,587.691589 565.712341,587.213440 566.319885,586.735291 
	C568.543152,588.783752 570.766479,590.832275 573.140503,593.246948 
	C572.413574,594.718384 571.535828,595.823730 570.383484,597.071716 
z"/>
<path fill="#014FEE" opacity="1.000000" stroke="none" 
	d="
M559.598999,609.054443 
	C558.326233,607.809204 556.340271,606.212036 556.616394,605.299561 
	C557.715759,601.666809 560.531860,603.063416 563.341736,603.927246 
	C562.444580,605.662598 561.184998,607.339905 559.598999,609.054443 
z"/>
<path fill="#012F9D" opacity="1.000000" stroke="none" 
	d="
M417.382843,789.957031 
	C417.086029,788.207275 417.173279,786.412170 417.123688,784.302429 
	C417.411896,783.053162 417.836945,782.118469 418.841064,781.081909 
	C419.613678,780.985657 419.807220,780.991272 420.000763,780.996948 
	C420.000763,780.996948 420.500366,780.998657 420.750183,780.999329 
	C420.305176,784.109436 423.063568,788.471680 417.382843,789.957031 
z"/>
<path fill="#0546D1" opacity="1.000000" stroke="none" 
	d="
M558.549438,679.339844 
	C555.081787,679.680603 551.165222,679.913940 547.123535,679.788452 
	C550.699219,679.363953 554.399841,679.298218 558.549438,679.339844 
z"/>
<path fill="#0037B4" opacity="1.000000" stroke="none" 
	d="
M383.610870,765.001221 
	C384.006683,765.345398 384.010925,765.688293 384.019592,766.288452 
	C382.300507,766.605347 380.576935,766.665100 378.434265,766.621216 
	C379.749847,766.011719 381.484558,765.505859 383.610870,765.001221 
z"/>
<path fill="#0134AB" opacity="1.000000" stroke="none" 
	d="
M424.926147,765.971741 
	C425.527191,765.828613 426.128235,765.685486 426.878387,765.998779 
	C427.027496,766.455200 427.083374,766.916748 427.083374,766.916748 
	C427.083374,766.916748 427.068787,766.928406 427.074707,766.926514 
	C426.618073,766.873291 426.155457,766.821899 425.345276,766.522949 
	C424.997711,766.275452 424.926147,765.971741 424.926147,765.971741 
z"/>
<path fill="#023BBD" opacity="1.000000" stroke="none" 
	d="
M424.481506,765.982361 
	C424.926147,765.971741 424.997711,766.275452 425.007385,766.431152 
	C423.995300,766.615295 422.973511,766.643677 421.656616,766.419128 
	C422.253296,766.108459 423.145050,766.050720 424.481506,765.982361 
z"/>
<path fill="#0546D1" opacity="1.000000" stroke="none" 
	d="
M521.274414,654.907593 
	C521.407104,654.373596 521.801392,653.728577 522.497314,653.018677 
	C522.377930,653.568115 521.956970,654.182373 521.274414,654.907593 
z"/>
<path fill="#0546D1" opacity="1.000000" stroke="none" 
	d="
M643.249390,680.672241 
	C642.964539,680.494934 642.947815,680.234070 642.976257,679.777649 
	C643.233521,679.557739 643.465332,679.532166 643.697144,679.506592 
	C643.630737,679.867676 643.564270,680.228882 643.249390,680.672241 
z"/>
<path fill="#0149E1" opacity="1.000000" stroke="none" 
	d="
M533.223999,640.676880 
	C533.117920,640.474792 533.249573,640.306213 533.576660,640.104858 
	C533.765076,640.317017 533.661621,640.529785 533.223999,640.676880 
z"/>
<path fill="#0546D1" opacity="1.000000" stroke="none" 
	d="
M640.664246,679.500854 
	C640.820801,679.619019 640.584961,679.811462 640.584961,679.811462 
	C640.584961,679.811462 640.282715,679.767883 640.228088,679.677979 
	C640.173462,679.588013 640.507690,679.382690 640.664246,679.500854 
z"/>
<path fill="#0031A5" opacity="1.000000" stroke="none" 
	d="
M420.011871,779.188232 
	C420.276245,779.239441 420.372375,779.449097 420.434357,779.668335 
	C420.439972,779.688354 420.226379,779.770264 419.924561,779.820740 
	C419.734558,779.818054 419.834351,779.349182 420.011871,779.188232 
z"/>
<path fill="#0031A5" opacity="1.000000" stroke="none" 
	d="
M419.971649,780.689209 
	C419.807220,780.991272 419.613678,780.985657 419.130554,780.958313 
	C418.998810,780.620667 419.156647,780.304688 419.558929,779.884033 
	C419.849762,779.979980 419.896149,780.180786 419.971649,780.689209 
z"/>
<path fill="#023BBD" opacity="1.000000" stroke="none" 
	d="
M427.313599,766.945312 
	C427.083374,766.916748 427.027496,766.455200 427.037415,766.223022 
	C427.354492,766.102661 427.603638,766.291138 427.901306,766.768311 
	C428.007782,766.980347 427.543854,766.973816 427.313599,766.945312 
z"/>
<path fill="#FEFEFE" opacity="1.000000" stroke="none" 
	d="
M399.164978,697.641846 
	C399.118805,697.642395 399.239471,697.696716 399.266937,697.718018 
	C399.294403,697.739380 399.211121,697.641357 399.164978,697.641846 
z"/>
</svg>